<svg width="32" height="48" viewBox="0 0 32 48" fill="none" xmlns="http://www.w3.org/2000/svg">
<path d="M16.707 47.707L31.707 32.707C32.0977 32.3164 32.0977 31.6836 31.707 31.293C31.3164 30.9023 30.6835 30.9023 30.293 31.293L17 44.586L17 1.00003C17 0.447281 16.5527 0 15.9999 0C15.4472 0 14.9999 0.447281 14.9999 1.00003L14.9999 44.586L1.70701 31.293C1.31635 30.9023 0.683542 30.9023 0.29298 31.293C0.0976982 31.4883 1.14441e-05 31.7442 1.14441e-05 32.0001C1.14441e-05 32.2559 0.0976982 32.5117 0.29298 32.7071L15.293 47.7071C15.6835 48.0977 16.3164 48.0977 16.707 47.707Z" fill="white"/>
</svg>
