<svg width="838" height="434" viewBox="0 0 838 434" fill="none" xmlns="http://www.w3.org/2000/svg">
<g clip-path="url(#clip0_1685_327)">
<path d="M629.68 296.89L592.23 402.67L554.66 296.89H532.34L580.95 430.81H603.52L652.13 296.89H629.68Z" fill="white"/>
<path d="M652.13 402.67L633.14 349.21L622.18 379.4L640.84 430.81H663.41L712.02 296.89H689.57L652.13 402.67Z" fill="white"/>
<path d="M133.73 155.25C137.26 148.126 139.026 140.259 138.88 132.31C138.88 123.71 137.31 116.58 134.17 110.92C131.274 105.537 127.204 100.875 122.26 97.2799C117.695 93.9755 112.716 91.2858 107.45 89.2799C102.363 87.3799 97.88 85.8933 94 84.8199L60 74.9999C55.4186 73.6911 50.9232 72.098 46.54 70.2299C42.1792 68.4309 38.2469 65.7321 35 62.3099C31.86 58.9766 30.29 54.5766 30.29 49.1099C30.2254 43.7484 32.0684 38.5383 35.49 34.4099C39.2388 29.9494 44.0548 26.5094 49.49 24.4099C55.7611 21.962 62.461 20.8023 69.19 20.9999C76.4195 20.9934 83.5712 22.4919 90.19 25.3999C96.3896 28.1273 101.85 32.2922 106.12 37.5499C110.463 42.9856 113.308 49.4638 114.37 56.3399L137.8 52.2499C135.944 42.0635 131.625 32.4854 125.22 24.3499C118.934 16.5295 110.833 10.3639 101.62 6.38993C92.1533 2.20993 81.4267 0.0799309 69.44 -6.90834e-05C57.62 -0.0800691 46.9967 1.86326 37.57 5.82993C28.6764 9.39237 20.9341 15.3323 15.19 22.9999C9.69 30.4933 6.94 39.5266 6.94 50.0999C6.80121 55.9864 7.90168 61.8363 10.17 67.2699C12.2025 71.9435 15.1544 76.1605 18.85 79.6699C22.5272 83.1333 26.708 86.0194 31.25 88.2299C35.8807 90.5008 40.6902 92.3872 45.63 93.8699L91.14 107.39C94.3312 108.286 97.442 109.447 100.44 110.86C103.326 112.205 106.017 113.934 108.44 116C110.788 118.027 112.688 120.519 114.02 123.32C115.442 126.538 116.125 130.033 116.02 133.55C116.148 139.627 114.13 145.554 110.32 150.29C106.225 155.211 100.897 158.955 94.88 161.14C87.925 163.743 80.5453 165.025 73.12 164.92C60.72 164.92 49.9533 161.76 40.82 155.44C31.6867 149.12 25.6867 140.337 22.82 129.09L0 132.68C1.75175 143.072 6.17277 152.83 12.83 161C19.5569 169.084 28.1559 175.404 37.88 179.41C48.0067 183.71 59.3933 185.86 72.04 185.86C80.8307 185.919 89.5851 184.727 98.04 182.32C105.704 180.181 112.926 176.697 119.37 172.03C125.411 167.645 130.331 161.896 133.73 155.25Z" fill="white"/>
<path d="M177.19 131.57C177.19 138.43 177.293 144.567 177.5 149.98C177.76 155.565 179.22 161.029 181.78 166C184.743 171.86 189.589 176.555 195.54 179.33C202.032 182.286 209.058 183.888 216.19 184.04C224.071 184.318 231.958 183.673 239.69 182.12V163.12C230.51 164.52 222.677 164.767 216.19 163.86C209.703 162.953 204.97 159.853 201.99 154.56C200.356 151.478 199.485 148.048 199.45 144.56C199.33 140.667 199.27 136 199.27 130.56V66.47H239.69V48.24H199.27V11H177.19V48.2H150V66.47H177.15L177.19 131.57Z" fill="white"/>
<path d="M369.89 70.68C366.23 62.0521 359.549 55.055 351.1 51C342.367 46.68 331.93 44.52 319.79 44.52C304.67 44.52 292.477 47.8534 283.21 54.52C273.943 61.1867 267.703 70.4167 264.49 82.21L285.44 88.54C287.92 80.2667 292.2 74.2934 298.28 70.62C304.717 66.8426 312.078 64.9313 319.54 65.1C331.78 65.1 340.4 67.9534 345.4 73.66C349.9 78.7934 352.273 86.4367 352.52 96.59C347.81 97.24 342.91 97.9 337.77 98.59C329.67 99.67 321.67 100.85 313.77 102.13C306.566 103.264 299.426 104.772 292.38 106.65C286.145 108.381 280.236 111.125 274.89 114.77C270.119 118.086 266.227 122.514 263.55 127.67C260.719 133.664 259.343 140.242 259.536 146.868C259.729 153.494 261.485 159.981 264.66 165.8C268.265 172.004 273.556 177.056 279.92 180.37C286.653 184.05 295.023 185.89 305.03 185.89C317.997 185.89 328.997 183.12 338.03 177.58C344.701 173.468 350.361 167.907 354.59 161.31V182.17H374.18V99.33C374.191 94.2572 373.941 89.1871 373.43 84.14C373.003 79.4884 371.807 74.9399 369.89 70.68ZM350.05 136.53C348.957 142.105 346.577 147.347 343.1 151.84C339.358 156.662 334.526 160.528 329 163.12C323.167 165.98 316.283 167.407 308.35 167.4C301.99 167.4 296.847 166.367 292.92 164.3C289.297 162.525 286.278 159.722 284.24 156.24C282.417 153.073 281.455 149.484 281.45 145.83C281.318 142.08 282.333 138.378 284.36 135.22C286.352 132.327 288.983 129.932 292.05 128.22C295.292 126.373 298.722 124.874 302.28 123.75C307.789 122.228 313.377 121.009 319.02 120.1C325.22 119.06 331.79 118.087 338.73 117.18C343.17 116.6 347.68 116 352.21 115.38C352.21 117.47 352.13 119.9 352.06 122.7C352.01 127.379 351.334 132.03 350.05 136.53Z" fill="white"/>
<path d="M428.67 115C428.649 109.767 429.094 104.543 430 99.3899C430.865 94.4255 432.52 89.6316 434.9 85.1899C437.317 80.7407 440.742 76.9188 444.9 74.0299C449.387 70.6657 454.702 68.5817 460.28 67.9999C465.385 67.3981 470.557 67.7371 475.54 68.9999V48.2399C471.347 47.3131 467.043 46.9999 462.76 47.3099C458.198 47.6147 453.696 48.5191 449.37 49.9999C445.091 51.4334 441.103 53.6175 437.59 56.4499C434.313 58.8184 431.445 61.7064 429.1 64.9999C428.043 66.4661 427.072 67.992 426.19 69.5699V48.2399H406.47V182.16H428.67V115Z" fill="white"/>
<path d="M573.87 182.16V163.16C564.69 164.56 556.857 164.807 550.37 163.9C543.883 162.993 539.15 159.893 536.17 154.6C534.531 151.52 533.66 148.089 533.63 144.6C533.497 140.707 533.433 136.04 533.44 130.6V66.47H573.87V48.24H533.44V11H511.37V48.2H484.21V66.47H511.37V131.57C511.37 138.43 511.473 144.567 511.68 149.98C511.952 155.568 513.426 161.032 516 166C518.963 171.86 523.809 176.555 529.76 179.33C536.252 182.286 543.278 183.888 550.41 184.04C558.276 184.328 566.15 183.697 573.87 182.16Z" fill="white"/>
<path d="M8.68005 430.16H30.7501V351.91H97.9601V329.84H30.7501V273.67H112.84V251.6H8.68005V430.16Z" fill="white"/>
<path d="M222.89 301.82C213.423 295.62 201.953 292.52 188.48 292.52C175.5 292.52 164.193 295.433 154.56 301.26C144.835 307.195 137.024 315.805 132.06 326.06C126.68 336.767 123.993 349.433 124 364.06C124 378.06 126.727 390.273 132.18 400.7C137.342 410.844 145.276 419.315 155.06 425.13C164.86 430.95 176.33 433.863 189.47 433.87C201.874 434.029 214.067 430.651 224.62 424.13C235.098 417.62 243.307 408.028 248.12 396.67L226.92 389.35C223.576 396.534 218.237 402.605 211.54 406.84C205.013 410.887 197.327 412.91 188.48 412.91C175.333 412.91 165.207 408.577 158.1 399.91C151.953 392.403 148.463 382.237 147.63 369.41H250.35C251.017 353.537 248.973 339.87 244.22 328.41C239.467 316.95 232.357 308.087 222.89 301.82ZM158.1 325.5C165.213 316.74 175.587 312.36 189.22 312.36C201.953 312.36 211.543 316.43 217.99 324.57C223.09 331.01 226.247 340.043 227.46 351.67H148.1C149.433 340.803 152.767 332.08 158.1 325.5Z" fill="white"/>
<path d="M302.43 247.88H280.36V430.16H302.43V247.88Z" fill="white"/>
<path d="M364.18 247.88H342.11V430.16H364.18V247.88Z" fill="white"/>
<path d="M493 301.51C483.333 295.51 471.8 292.51 458.4 292.51C445.34 292.51 433.973 295.463 424.3 301.37C414.61 307.303 406.823 315.889 401.86 326.11C396.567 336.69 393.92 349.007 393.92 363.06C393.92 376.867 396.523 389.103 401.73 399.77C406.618 410.072 414.344 418.765 424 424.83C433.627 430.83 445.097 433.847 458.41 433.88C471.723 433.913 483.213 430.913 492.88 424.88C502.558 418.903 510.311 410.266 515.21 400C520.403 389.333 523 377.023 523 363.07C523 349.27 520.417 337.057 515.25 326.43C510.389 316.153 502.663 307.5 493 301.51ZM489.42 399C482.64 408.26 472.307 412.89 458.42 412.89C444.947 412.89 434.737 408.343 427.79 399.25C420.843 390.157 417.373 378.087 417.38 363.04C417.38 353.293 418.867 344.697 421.84 337.25C424.506 330.208 429.214 324.121 435.36 319.77C441.36 315.55 449.047 313.44 458.42 313.44C472.14 313.44 482.433 317.927 489.3 326.9C496.167 335.873 499.597 347.92 499.59 363.04C499.59 377.78 496.2 389.767 489.42 399Z" fill="white"/>
<path d="M833.4 374.67C830.513 369.923 825.657 365.79 818.83 362.27C812.003 358.75 802.67 355.503 790.83 352.53C782.712 350.6 774.701 348.243 766.83 345.47C761.33 343.397 757.567 341.203 755.54 338.89C753.535 336.597 752.464 333.635 752.54 330.59C752.54 324.803 755.247 320.213 760.66 316.82C766.073 313.427 773.123 311.897 781.81 312.23C790.977 312.483 798.477 314.677 804.31 318.81C807.134 320.757 809.517 323.277 811.302 326.206C813.087 329.135 814.235 332.408 814.67 335.81L837.24 331.72C836.432 324.125 833.386 316.942 828.49 311.08C823.272 304.959 816.602 300.245 809.09 297.37C800.39 294.027 791.129 292.387 781.81 292.54C771.563 292.54 762.563 294.15 754.81 297.37C747.057 300.59 741.053 305.153 736.8 311.06C732.478 317.063 730.219 324.305 730.36 331.7C730.36 338.073 731.807 343.49 734.7 347.95C737.593 352.41 742.43 356.337 749.21 359.73C755.977 363.117 765.273 366.38 777.1 369.52C788.02 372.42 796.183 374.9 801.59 376.96C806.997 379.02 810.573 381.233 812.32 383.6C814.164 386.314 815.076 389.553 814.92 392.83C815.015 395.86 814.351 398.866 812.987 401.573C811.622 404.281 809.602 406.604 807.11 408.33C801.903 412.11 794.713 414 785.54 414C775.86 414 767.757 411.87 761.23 407.61C754.952 403.705 750.457 397.494 748.71 390.31L726.14 394C728.453 406.567 734.717 416.343 744.93 423.33C755.143 430.317 768.223 433.807 784.17 433.8C800.87 433.8 813.973 430.103 823.48 422.71C832.987 415.317 837.74 405.167 837.74 392.26C837.74 385.287 836.293 379.423 833.4 374.67Z" fill="white"/>
</g>
<defs>
<clipPath id="clip0_1685_327">
<rect width="837.74" height="433.88" fill="white"/>
</clipPath>
</defs>
</svg>
